<svg width="25" height="24" viewBox="0 0 25 24" fill="none" xmlns="http://www.w3.org/2000/svg">
<g id="&#230;&#160;&#161;&#233;&#170;&#140;_check-one 4">
<path id="Vector" d="M12.5 21.5C15.1235 21.5 17.4978 20.4372 19.2175 18.7175C20.9372 16.9978 22 14.6235 22 12C22 9.37654 20.9372 7.00222 19.2175 5.28248C17.4978 3.56278 15.1235 2.5 12.5 2.5C9.87653 2.5 7.50222 3.56278 5.78248 5.28249M12.5 21.5L5.78248 5.28249M12.5 21.5C9.87654 21.5 7.50222 20.4372 5.78248 18.7175C4.06278 16.9978 3 14.6235 3 12C3 9.37653 4.06277 7.00222 5.78248 5.28249M12.5 21.5L5.78248 5.28249" fill="#00CF85" stroke="#00CF85" stroke-linejoin="round"/>
<path id="Vector_2" d="M8.5 12L11.1667 15L16.5 9" stroke="white" stroke-width="2" stroke-linecap="round" stroke-linejoin="round"/>
</g>
</svg>
